<svg xmlns="http://www.w3.org/2000/svg" viewBox="0 16.899999618530273 80.25 35.849998474121094" data-asc="1.05" width="80.25" height="35.849998474121094"><defs/><g fill="#e50914"><g transform="translate(0, 0)"><path d="M0 34.80Q0 29.60 2.18 25.52Q4.35 21.45 8.35 19.17Q12.35 16.90 17.55 16.90Q24.15 16.90 28.65 20.42Q33.15 23.95 34.45 30L23.90 30Q22.95 28 21.27 26.95Q19.60 25.90 17.40 25.90Q14.00 25.90 11.98 28.32Q9.95 30.75 9.95 34.80Q9.95 38.90 11.98 41.33Q14.00 43.75 17.40 43.75Q19.60 43.75 21.27 42.70Q22.95 41.65 23.90 39.65L34.45 39.65Q33.15 45.70 28.65 49.23Q24.15 52.75 17.55 52.75Q12.35 52.75 8.35 50.48Q4.35 48.20 2.18 44.13Q0 40.05 0 34.80ZM80.25 17.25L80.25 52.50L70.45 52.50L70.45 33.05L63.80 52.50L55.60 52.50L48.90 32.90L48.90 52.50L39.10 52.50L39.10 17.25L50.95 17.25L59.80 40.15L68.45 17.25L80.25 17.25Z"/></g></g></svg>